<?xml version="1.0" encoding="utf-8"?>
<!-- Generator: Adobe Illustrator 18.1.1, SVG Export Plug-In . SVG Version: 6.00 Build 0)  -->
<svg version="1.1" id="圖層_1" xmlns="http://www.w3.org/2000/svg" xmlns:xlink="http://www.w3.org/1999/xlink" x="0px" y="0px"
	 viewBox="230 390.2 100 45" enable-background="new 230 390.2 100 45" xml:space="preserve">
<g>
	<g>
		<path fill="#E24301" d="M253.5,425.8h3.2c0.5,0,0.9,0.1,1.3,0.2c0.4,0.2,0.8,0.4,1.1,0.7c0.3,0.3,0.5,0.7,0.7,1.1
			c0.2,0.5,0.3,1,0.3,1.6c0,0.5-0.1,1-0.2,1.5c-0.1,0.5-0.3,0.8-0.6,1.2c-0.3,0.3-0.6,0.6-1.1,0.8c-0.4,0.2-0.9,0.3-1.5,0.3h-3.2
			V425.8z M255.1,431.8h1.5c0.2,0,0.5,0,0.7-0.1c0.2-0.1,0.4-0.2,0.6-0.4c0.2-0.2,0.3-0.4,0.4-0.7c0.1-0.3,0.2-0.6,0.2-1
			c0-0.4,0-0.7-0.1-1c-0.1-0.3-0.2-0.6-0.4-0.8c-0.2-0.2-0.4-0.4-0.7-0.5c-0.3-0.1-0.6-0.2-1-0.2h-1.2V431.8z"/>
		<path fill="#E24301" d="M261,427.9h1.4v1h0c0.1-0.2,0.2-0.3,0.3-0.5s0.3-0.3,0.4-0.4c0.2-0.1,0.3-0.2,0.5-0.2
			c0.2-0.1,0.4-0.1,0.5-0.1c0.1,0,0.2,0,0.3,0.1v1.4c-0.1,0-0.2,0-0.2,0c-0.1,0-0.2,0-0.3,0c-0.3,0-0.5,0-0.7,0.1
			c-0.2,0.1-0.3,0.2-0.5,0.4c-0.1,0.2-0.2,0.3-0.2,0.5c0,0.2-0.1,0.4-0.1,0.7v2.4H261V427.9z"/>
		<path fill="#E24301" d="M265,429.5c0-0.3,0.1-0.6,0.3-0.9c0.2-0.2,0.3-0.4,0.6-0.5c0.2-0.1,0.5-0.2,0.8-0.3
			c0.3-0.1,0.6-0.1,0.9-0.1c0.3,0,0.5,0,0.8,0.1c0.3,0,0.5,0.1,0.8,0.2c0.2,0.1,0.4,0.3,0.6,0.5c0.1,0.2,0.2,0.5,0.2,0.8v2.8
			c0,0.2,0,0.5,0,0.7c0,0.2,0.1,0.4,0.1,0.5h-1.5c0-0.1-0.1-0.2-0.1-0.3c0-0.1,0-0.2,0-0.3c-0.2,0.2-0.5,0.4-0.8,0.5
			c-0.3,0.1-0.6,0.1-1,0.1c-0.3,0-0.5,0-0.7-0.1c-0.2-0.1-0.4-0.2-0.6-0.3c-0.2-0.1-0.3-0.3-0.4-0.5c-0.1-0.2-0.1-0.4-0.1-0.7
			c0-0.3,0.1-0.6,0.2-0.7c0.1-0.2,0.2-0.4,0.4-0.5c0.2-0.1,0.4-0.2,0.6-0.3c0.2-0.1,0.4-0.1,0.7-0.1c0.2,0,0.4-0.1,0.7-0.1
			c0.2,0,0.4-0.1,0.6-0.1c0.2,0,0.3-0.1,0.4-0.2c0.1-0.1,0.1-0.2,0.1-0.3c0-0.2,0-0.3-0.1-0.4c-0.1-0.1-0.1-0.2-0.2-0.2
			c-0.1-0.1-0.2-0.1-0.3-0.1c-0.1,0-0.2,0-0.4,0c-0.3,0-0.5,0.1-0.7,0.2c-0.2,0.1-0.3,0.3-0.3,0.6H265z M268.4,430.6
			c-0.1,0.1-0.1,0.1-0.2,0.1c-0.1,0-0.2,0.1-0.3,0.1c-0.1,0-0.2,0-0.3,0.1c-0.1,0-0.2,0-0.3,0.1c-0.1,0-0.2,0-0.3,0.1
			s-0.2,0.1-0.3,0.1c-0.1,0.1-0.1,0.1-0.2,0.2c0,0.1-0.1,0.2-0.1,0.3c0,0.1,0,0.2,0.1,0.3c0,0.1,0.1,0.2,0.2,0.2s0.2,0.1,0.3,0.1
			c0.1,0,0.2,0,0.3,0c0.3,0,0.5,0,0.7-0.1c0.2-0.1,0.3-0.2,0.4-0.3c0.1-0.1,0.1-0.3,0.1-0.4c0-0.1,0-0.2,0-0.3V430.6z"/>
		<path fill="#E24301" d="M276.2,432.8c0,0.1,0,0.3,0,0.5c0,0.2-0.1,0.4-0.1,0.5c-0.1,0.2-0.2,0.3-0.3,0.5c-0.1,0.2-0.3,0.3-0.5,0.4
			c-0.2,0.1-0.5,0.2-0.8,0.3c-0.3,0.1-0.7,0.1-1.1,0.1c-0.3,0-0.5,0-0.8-0.1c-0.3-0.1-0.5-0.2-0.7-0.3c-0.2-0.1-0.4-0.3-0.6-0.5
			c-0.1-0.2-0.2-0.5-0.3-0.8h1.5c0.1,0.3,0.2,0.5,0.4,0.6c0.2,0.1,0.4,0.2,0.7,0.2c0.4,0,0.7-0.1,0.9-0.4c0.2-0.2,0.3-0.6,0.3-0.9
			v-0.7h0c-0.2,0.3-0.4,0.5-0.7,0.6c-0.3,0.1-0.6,0.2-0.9,0.2c-0.4,0-0.7-0.1-1-0.2c-0.3-0.1-0.5-0.3-0.7-0.6
			c-0.2-0.2-0.3-0.5-0.4-0.9c-0.1-0.3-0.1-0.7-0.1-1c0-0.3,0.1-0.7,0.2-1c0.1-0.3,0.2-0.6,0.4-0.8c0.2-0.2,0.4-0.4,0.7-0.6
			c0.3-0.1,0.6-0.2,1-0.2c0.4,0,0.7,0.1,0.9,0.2c0.3,0.1,0.5,0.4,0.7,0.7h0v-0.7h1.4V432.8z M274.1,431.8c0.2-0.1,0.3-0.2,0.4-0.3
			c0.1-0.1,0.2-0.3,0.2-0.5c0.1-0.2,0.1-0.4,0.1-0.6c0-0.2,0-0.4-0.1-0.6c0-0.2-0.1-0.4-0.2-0.5c-0.1-0.2-0.2-0.3-0.4-0.4
			c-0.2-0.1-0.4-0.1-0.6-0.1c-0.2,0-0.4,0-0.5,0.1c-0.1,0.1-0.3,0.2-0.4,0.3c-0.1,0.1-0.2,0.3-0.2,0.5c0,0.2-0.1,0.4-0.1,0.6
			c0,0.2,0,0.4,0.1,0.6c0,0.2,0.1,0.4,0.2,0.5c0.1,0.2,0.2,0.3,0.4,0.4c0.2,0.1,0.3,0.1,0.6,0.1C273.8,431.9,274,431.9,274.1,431.8z
			"/>
		<path fill="#E24301" d="M277.5,429.4c0.1-0.3,0.3-0.6,0.6-0.9c0.2-0.2,0.5-0.4,0.9-0.6c0.3-0.1,0.7-0.2,1.1-0.2
			c0.4,0,0.8,0.1,1.1,0.2c0.3,0.1,0.6,0.3,0.9,0.6c0.2,0.2,0.4,0.5,0.6,0.9c0.1,0.3,0.2,0.7,0.2,1.2c0,0.4-0.1,0.8-0.2,1.2
			c-0.1,0.3-0.3,0.6-0.6,0.9c-0.2,0.2-0.5,0.4-0.9,0.6c-0.3,0.1-0.7,0.2-1.1,0.2c-0.4,0-0.8-0.1-1.1-0.2c-0.3-0.1-0.6-0.3-0.9-0.6
			s-0.4-0.5-0.6-0.9c-0.1-0.3-0.2-0.7-0.2-1.2C277.3,430.1,277.3,429.7,277.5,429.4z M278.8,431.1c0,0.2,0.1,0.4,0.2,0.5
			c0.1,0.2,0.2,0.3,0.4,0.4c0.2,0.1,0.4,0.1,0.6,0.1c0.2,0,0.5,0,0.6-0.1c0.2-0.1,0.3-0.2,0.4-0.4c0.1-0.2,0.2-0.3,0.2-0.5
			c0-0.2,0.1-0.4,0.1-0.6c0-0.2,0-0.4-0.1-0.6c0-0.2-0.1-0.4-0.2-0.5c-0.1-0.2-0.2-0.3-0.4-0.4c-0.2-0.1-0.4-0.1-0.6-0.1
			c-0.3,0-0.5,0-0.6,0.1c-0.2,0.1-0.3,0.2-0.4,0.4c-0.1,0.2-0.2,0.3-0.2,0.5c0,0.2-0.1,0.4-0.1,0.6
			C278.7,430.7,278.8,430.9,278.8,431.1z"/>
		<path fill="#E24301" d="M283.8,427.9h1.4v0.7h0c0.2-0.3,0.4-0.5,0.7-0.7s0.6-0.2,0.9-0.2c0.4,0,0.7,0.1,1,0.2
			c0.3,0.1,0.5,0.3,0.6,0.4c0.1,0.2,0.2,0.4,0.3,0.7c0.1,0.3,0.1,0.6,0.1,0.9v3.3h-1.5v-3c0-0.4-0.1-0.8-0.2-1
			c-0.1-0.2-0.4-0.3-0.7-0.3c-0.4,0-0.7,0.1-0.9,0.4c-0.2,0.2-0.3,0.6-0.3,1.2v2.8h-1.5V427.9z"/>
	</g>
	<g>
		<path fill-rule="evenodd" clip-rule="evenodd" fill="#009BDE" d="M312.2,423.4c-15.4-14.2-12.7-27.3-12.5-27.3
			c5.8,0,5.7-5.9,5.7-5.9h6.9h0.1h6.9c0,0-0.1,5.9,5.7,5.9c0.2,0,2.8,13.1-12.5,27.3H312.2z M312.2,418.8
			c-10.1-10-9.7-20.3-9.4-20.4c5-1.7,5.1-5.2,5.1-5.2h4.3h0h4.3c0,0,0.1,3.5,5.1,5.2C322,398.5,322.4,408.8,312.2,418.8L312.2,418.8
			z"/>
		<path fill-rule="evenodd" clip-rule="evenodd" fill="#009BDE" d="M315.3,402.6c0,1.6-1.3,3-3,3c-1.7,0-3-1.3-3-3c0-1.6,1.3-3,3-3
			C313.9,399.6,315.3,401,315.3,402.6z M312.3,400c-1.4,0-2.6,1.2-2.6,2.6c0,1.4,1.2,2.6,2.6,2.6c1.4,0,2.6-1.2,2.6-2.6
			C314.9,401.2,313.7,400,312.3,400z"/>
		<path fill-rule="evenodd" clip-rule="evenodd" fill="#009BDE" d="M316.6,402.6c0,2.4-1.9,4.3-4.3,4.3c-2.4,0-4.3-1.9-4.3-4.3
			c0-2.4,1.9-4.3,4.3-4.3C314.6,398.3,316.6,400.2,316.6,402.6z M312.3,398.8c-2.1,0-3.8,1.7-3.8,3.8c0,2.1,1.7,3.8,3.8,3.8
			c2.1,0,3.8-1.7,3.8-3.8C316.1,400.5,314.4,398.8,312.3,398.8z"/>
		<path fill-rule="evenodd" clip-rule="evenodd" fill="#009BDE" d="M317.9,402.6c0,3.1-2.5,5.6-5.7,5.6c-3.1,0-5.7-2.5-5.7-5.6
			c0-3.1,2.5-5.6,5.7-5.6C315.4,397,317.9,399.5,317.9,402.6z M312.3,397.5c-2.9,0-5.2,2.3-5.2,5.1c0,2.8,2.3,5.1,5.2,5.1
			c2.9,0,5.2-2.3,5.2-5.1C317.5,399.8,315.1,397.5,312.3,397.5z"/>
		<path fill-rule="evenodd" clip-rule="evenodd" fill="#009BDE" d="M319.6,402.6c0,4-3.3,7.2-7.3,7.2c-4,0-7.3-3.2-7.3-7.2
			c0-4,3.3-7.2,7.3-7.2C316.3,395.4,319.6,398.6,319.6,402.6z M312.3,395.9c-3.7,0-6.8,3-6.8,6.7c0,3.7,3,6.7,6.8,6.7
			c3.7,0,6.8-3,6.8-6.7C319,398.9,316,395.9,312.3,395.9z"/>
		<rect x="305.2" y="402.4" fill-rule="evenodd" clip-rule="evenodd" fill="#009BDE" width="14.1" height="0.4"/>
		<rect x="312" y="395.7" fill-rule="evenodd" clip-rule="evenodd" fill="#009BDE" width="0.4" height="14"/>
		<polygon fill-rule="evenodd" clip-rule="evenodd" fill="#009BDE" points="317.4,397.9 307.4,407.7 307.1,407.4 317.1,397.5 		"/>
		<polygon fill-rule="evenodd" clip-rule="evenodd" fill="#009BDE" points="307.4,397.5 317.4,407.4 317.1,407.7 307.1,397.9 		"/>
		<path fill="#009BDE" d="M249.8,411.4c-0.8,6.1-4,9.1-10.5,9.1c-6.7,0-9-3.6-9.2-6.9c-0.1-1.3,0.1-3.3,0.4-4.8h7.4
			c-0.1,1-0.5,2.6-0.4,3.6c0.1,1.1,0.7,1.9,1.9,1.9c1.5,0,1.9-0.8,2.1-2.2l3-18.7h8.2L249.8,411.4z"/>
		<path fill="#009BDE" d="M279,409.8c-0.3,2.7-2,10.7-13.1,10.7c-7.8,0-11.8-5-12.2-12.1c-0.5-8.6,4.5-15.7,13.6-15.7
			c6,0,11.4,2.6,12,10.5h-7.8c-0.1-2.5-1.3-3.9-3.9-3.9c-4.6,0-5.9,5.2-5.7,8.9c0.1,2.2,0.8,5.6,4.6,5.6c2.6,0,4-1.7,4.4-4.1H279z"
			/>
		<path fill="#009BDE" d="M285.3,393.4h8.2l-4.1,26.5h-8.2L285.3,393.4z"/>
		<path fill-rule="evenodd" clip-rule="evenodd" fill="#009BDE" d="M315.6,398.3c-0.1-0.2-0.2-0.4-0.2-0.5c0-0.2,0-0.3,0-0.5
			c0.3-0.1,0.6,1.1,0.8,1.3c0.4,0.4,1,0.7,1.5,0.9c0,0.3-0.6,0.2-0.7,0.1c-0.3-0.2-0.4-0.3-0.8-0.3c-0.1,0-0.4,0-0.5,0
			c-0.2-0.1-0.1-0.2-0.1-0.3c-0.1-0.3,0-0.6-0.1-0.9"/>
		<path fill-rule="evenodd" clip-rule="evenodd" fill="#009BDE" d="M313.1,396.6c-0.1,0.1,0.1,0.2,0.3,0.2c0.1-0.3-0.2-0.3-0.4-0.2
			C313,396.6,313.1,396.6,313.1,396.6"/>
		<path fill-rule="evenodd" clip-rule="evenodd" fill="#009BDE" d="M315,399.1c-0.2,0-0.6-0.4-0.5,0.1c0,0.2,0.4,0.4,0.5,0.5
			c0.4,0.3,0.7,1,1.3,0.9c-0.3-0.3-0.6-0.5-0.8-0.9C315.3,399.5,315.2,399.2,315,399.1"/>
		<path fill-rule="evenodd" clip-rule="evenodd" fill="#009BDE" d="M313.3,403.9c-0.2,0-0.6,0.4-0.7,0.6c-0.2,0.2-0.3,0.6-0.3,0.9
			c0.2,1,1.2,0.7,1.9,0.6c0.2,0.4,0.5,0.2,0.9,0.3c0.3,0,0.6,0.4,0.9,0.4c0.6,0,0.1-1.2-0.1-1.5c-0.2-0.3-0.5-0.4-0.7-0.7
			c-0.2-0.3-0.2-0.7-0.4-1c-0.3-0.6-1.2-0.1-1.5,0.3c-0.1,0.1-0.1,0.1-0.2,0.2"/>
		<path fill-rule="evenodd" clip-rule="evenodd" fill="#009BDE" d="M316.6,404.9c-0.3,0.3-0.5,0.8,0,1c0.3,0.1,0.3,0,0.5-0.2
			c0.2-0.2,0.2-0.2,0.5-0.2c0.1-0.6-0.9-0.3-1.2-0.6"/>
		<path fill-rule="evenodd" clip-rule="evenodd" fill="#009BDE" d="M314.7,403.6c0.4-0.3,0.8-0.8,1.3-0.9c-0.2-0.5-0.6-0.7-0.9-1.1
			c-0.3-0.4-0.5-1-0.9-1.3c-0.5-0.5-0.9-0.1-1.1,0.4c-0.1,0.2-0.2,0.5-0.3,0.7c0,0.3,0.1,0.4,0.3,0.7c-0.3,0.2-0.1,0.6,0,0.8
			c-0.3,0-0.2,0.3-0.2,0.5c-0.1,0.1-0.2,0.4,0,0.5c0.1-0.4,0.2-0.2,0.3-0.1c0,0,0.1,0.1,0.1,0.1c0.1,0,0.3,0,0.4,0"/>
		<path fill-rule="evenodd" clip-rule="evenodd" fill="#009BDE" d="M308.9,403.2c0.2,0.1,0.6,0.1,0.7,0.2c0.2,0.1,0.3,0.5,0.4,0.7
			c0.3,0.3,0.7,0.4,0.6,0.9c-0.3,0.1-0.5,0-0.8,0.1c-0.1,0,0,0.1-0.1,0.2c-0.2,0.1-0.5,0.1-0.7,0.2c-0.7,0.1-0.8-0.3-1.3-0.7
			c0.2-0.4,1.1-0.8,0.8-1.3C308.8,403.4,309,403.4,308.9,403.2"/>
		<path fill-rule="evenodd" clip-rule="evenodd" fill="#009BDE" d="M310.8,402.1c0.1-0.6,0-1.3,0.3-1.8c0.2-0.4,1.3-0.7,1.7-0.5
			c-0.1-0.1-0.5,1-0.6,1.1c-0.3,0.6-0.2,0.3-0.7,0.2c-0.3,0-0.7,0.1-0.8,0.3C310.4,401.7,310.6,401.8,310.8,402.1z"/>
		<path fill-rule="evenodd" clip-rule="evenodd" fill="#009BDE" d="M311.2,401.6c-0.6,0.6,0.6,1,1,1.3c0.3-0.4,0-0.8-0.3-1.2
			c-0.3-0.5-0.4-0.1-0.7,0.1c0,0,0,0,0,0.1"/>
	</g>
	<g>
		<path fill="#009BDE" d="M325.8,417.5h-0.9v-0.3h2.2v0.3h-0.9v2.4h-0.4V417.5z"/>
		<path fill="#009BDE" d="M327.3,417.2h0.5l0.9,2.3l0.9-2.3h0.5v2.7h-0.3v-2.2h0l-0.8,2.2h-0.3l-0.8-2.2h0v2.2h-0.3V417.2z"/>
	</g>
</g>
</svg>
