<?xml version="1.0" encoding="utf-8"?>
<!-- Generator: Adobe Illustrator 18.1.1, SVG Export Plug-In . SVG Version: 6.00 Build 0)  -->
<svg version="1.1" id="圖層_1" xmlns="http://www.w3.org/2000/svg" xmlns:xlink="http://www.w3.org/1999/xlink" x="0px" y="0px"
	 viewBox="0 0 100 45" enable-background="new 0 0 100 45" xml:space="preserve">
<g>
	<g>
		<path fill="#FFFFFF" d="M23.5,35.6h3.2c0.5,0,0.9,0.1,1.3,0.2c0.4,0.2,0.8,0.4,1.1,0.7c0.3,0.3,0.5,0.7,0.7,1.1
			c0.2,0.5,0.3,1,0.3,1.6c0,0.5-0.1,1-0.2,1.5c-0.1,0.5-0.3,0.8-0.6,1.2c-0.3,0.3-0.6,0.6-1.1,0.8c-0.4,0.2-0.9,0.3-1.5,0.3h-3.2
			V35.6z M25.1,41.6h1.5c0.2,0,0.5,0,0.7-0.1c0.2-0.1,0.4-0.2,0.6-0.4c0.2-0.2,0.3-0.4,0.4-0.7c0.1-0.3,0.2-0.6,0.2-1
			c0-0.4,0-0.7-0.1-1c-0.1-0.3-0.2-0.6-0.4-0.8c-0.2-0.2-0.4-0.4-0.7-0.5C27,37,26.7,37,26.3,37h-1.2V41.6z"/>
		<path fill="#FFFFFF" d="M31,37.7h1.4v1h0c0.1-0.2,0.2-0.3,0.3-0.5s0.3-0.3,0.4-0.4c0.2-0.1,0.3-0.2,0.5-0.2
			c0.2-0.1,0.4-0.1,0.5-0.1c0.1,0,0.2,0,0.3,0.1v1.4c-0.1,0-0.2,0-0.2,0c-0.1,0-0.2,0-0.3,0c-0.3,0-0.5,0-0.7,0.1
			c-0.2,0.1-0.3,0.2-0.5,0.4c-0.1,0.2-0.2,0.3-0.2,0.5c0,0.2-0.1,0.4-0.1,0.7V43H31V37.7z"/>
		<path fill="#FFFFFF" d="M35,39.3c0-0.3,0.1-0.6,0.3-0.9c0.2-0.2,0.3-0.4,0.6-0.5c0.2-0.1,0.5-0.2,0.8-0.3c0.3-0.1,0.6-0.1,0.9-0.1
			c0.3,0,0.5,0,0.8,0.1c0.3,0,0.5,0.1,0.8,0.2c0.2,0.1,0.4,0.3,0.6,0.5c0.1,0.2,0.2,0.5,0.2,0.8v2.8c0,0.2,0,0.5,0,0.7
			c0,0.2,0.1,0.4,0.1,0.5h-1.5c0-0.1-0.1-0.2-0.1-0.3c0-0.1,0-0.2,0-0.3c-0.2,0.2-0.5,0.4-0.8,0.5c-0.3,0.1-0.6,0.1-1,0.1
			c-0.3,0-0.5,0-0.7-0.1c-0.2-0.1-0.4-0.2-0.6-0.3c-0.2-0.1-0.3-0.3-0.4-0.5c-0.1-0.2-0.1-0.4-0.1-0.7c0-0.3,0.1-0.6,0.2-0.7
			c0.1-0.2,0.2-0.4,0.4-0.5c0.2-0.1,0.4-0.2,0.6-0.3c0.2-0.1,0.4-0.1,0.7-0.1c0.2,0,0.4-0.1,0.7-0.1c0.2,0,0.4-0.1,0.6-0.1
			c0.2,0,0.3-0.1,0.4-0.2c0.1-0.1,0.1-0.2,0.1-0.3c0-0.2,0-0.3-0.1-0.4c-0.1-0.1-0.1-0.2-0.2-0.2c-0.1-0.1-0.2-0.1-0.3-0.1
			c-0.1,0-0.2,0-0.4,0c-0.3,0-0.5,0.1-0.7,0.2c-0.2,0.1-0.3,0.3-0.3,0.6H35z M38.4,40.4c-0.1,0.1-0.1,0.1-0.2,0.1
			c-0.1,0-0.2,0.1-0.3,0.1c-0.1,0-0.2,0-0.3,0.1c-0.1,0-0.2,0-0.3,0.1c-0.1,0-0.2,0-0.3,0.1c-0.1,0-0.2,0.1-0.3,0.1
			c-0.1,0.1-0.1,0.1-0.2,0.2c0,0.1-0.1,0.2-0.1,0.3c0,0.1,0,0.2,0.1,0.3c0,0.1,0.1,0.2,0.2,0.2c0.1,0.1,0.2,0.1,0.3,0.1
			c0.1,0,0.2,0,0.3,0c0.3,0,0.5,0,0.7-0.1c0.2-0.1,0.3-0.2,0.4-0.3c0.1-0.1,0.1-0.3,0.1-0.4c0-0.1,0-0.2,0-0.3V40.4z"/>
		<path fill="#FFFFFF" d="M46.2,42.6c0,0.1,0,0.3,0,0.5c0,0.2-0.1,0.4-0.1,0.5c-0.1,0.2-0.2,0.3-0.3,0.5c-0.1,0.2-0.3,0.3-0.5,0.4
			c-0.2,0.1-0.5,0.2-0.8,0.3C44.2,45,43.8,45,43.4,45c-0.3,0-0.5,0-0.8-0.1c-0.3-0.1-0.5-0.2-0.7-0.3c-0.2-0.1-0.4-0.3-0.6-0.5
			c-0.1-0.2-0.2-0.5-0.3-0.8h1.5c0.1,0.3,0.2,0.5,0.4,0.6c0.2,0.1,0.4,0.2,0.7,0.2c0.4,0,0.7-0.1,0.9-0.4c0.2-0.2,0.3-0.6,0.3-0.9
			V42h0c-0.2,0.3-0.4,0.5-0.7,0.6c-0.3,0.1-0.6,0.2-0.9,0.2c-0.4,0-0.7-0.1-1-0.2c-0.3-0.1-0.5-0.3-0.7-0.6
			c-0.2-0.2-0.3-0.5-0.4-0.9c-0.1-0.3-0.1-0.7-0.1-1c0-0.3,0.1-0.7,0.2-1c0.1-0.3,0.2-0.6,0.4-0.8c0.2-0.2,0.4-0.4,0.7-0.6
			c0.3-0.1,0.6-0.2,1-0.2c0.4,0,0.7,0.1,0.9,0.2c0.3,0.1,0.5,0.4,0.7,0.7h0v-0.7h1.4V42.6z M44.1,41.6c0.2-0.1,0.3-0.2,0.4-0.3
			c0.1-0.1,0.2-0.3,0.2-0.5c0.1-0.2,0.1-0.4,0.1-0.6c0-0.2,0-0.4-0.1-0.6c0-0.2-0.1-0.4-0.2-0.5c-0.1-0.2-0.2-0.3-0.4-0.4
			c-0.2-0.1-0.4-0.1-0.6-0.1c-0.2,0-0.4,0-0.5,0.1c-0.1,0.1-0.3,0.2-0.4,0.3c-0.1,0.1-0.2,0.3-0.2,0.5c0,0.2-0.1,0.4-0.1,0.6
			c0,0.2,0,0.4,0.1,0.6c0,0.2,0.1,0.4,0.2,0.5c0.1,0.2,0.2,0.3,0.4,0.4c0.2,0.1,0.3,0.1,0.6,0.1C43.8,41.7,43.9,41.7,44.1,41.6z"/>
		<path fill="#FFFFFF" d="M47.4,39.2c0.1-0.3,0.3-0.6,0.6-0.9c0.2-0.2,0.5-0.4,0.9-0.6c0.3-0.1,0.7-0.2,1.1-0.2
			c0.4,0,0.8,0.1,1.1,0.2c0.3,0.1,0.6,0.3,0.9,0.6c0.2,0.2,0.4,0.5,0.6,0.9c0.1,0.3,0.2,0.7,0.2,1.2c0,0.4-0.1,0.8-0.2,1.2
			c-0.1,0.3-0.3,0.6-0.6,0.9c-0.2,0.2-0.5,0.4-0.9,0.6c-0.3,0.1-0.7,0.2-1.1,0.2c-0.4,0-0.8-0.1-1.1-0.2c-0.3-0.1-0.6-0.3-0.9-0.6
			c-0.2-0.2-0.4-0.5-0.6-0.9c-0.1-0.3-0.2-0.7-0.2-1.2C47.2,39.9,47.3,39.5,47.4,39.2z M48.8,40.9c0,0.2,0.1,0.4,0.2,0.5
			c0.1,0.2,0.2,0.3,0.4,0.4C49.6,42,49.8,42,50,42c0.2,0,0.5,0,0.6-0.1c0.2-0.1,0.3-0.2,0.4-0.4c0.1-0.2,0.2-0.3,0.2-0.5
			c0-0.2,0.1-0.4,0.1-0.6c0-0.2,0-0.4-0.1-0.6c0-0.2-0.1-0.4-0.2-0.5c-0.1-0.2-0.2-0.3-0.4-0.4c-0.2-0.1-0.4-0.1-0.6-0.1
			c-0.3,0-0.5,0-0.6,0.1c-0.2,0.1-0.3,0.2-0.4,0.4c-0.1,0.2-0.2,0.3-0.2,0.5c0,0.2-0.1,0.4-0.1,0.6C48.7,40.5,48.7,40.7,48.8,40.9z"
			/>
		<path fill="#FFFFFF" d="M53.8,37.7h1.4v0.7h0c0.2-0.3,0.4-0.5,0.7-0.7c0.3-0.1,0.6-0.2,0.9-0.2c0.4,0,0.7,0.1,1,0.2
			c0.3,0.1,0.5,0.3,0.6,0.4c0.1,0.2,0.2,0.4,0.3,0.7c0.1,0.3,0.1,0.6,0.1,0.9V43h-1.5v-3c0-0.4-0.1-0.8-0.2-1
			c-0.1-0.2-0.4-0.3-0.7-0.3c-0.4,0-0.7,0.1-0.9,0.4c-0.2,0.2-0.3,0.6-0.3,1.2V43h-1.5V37.7z"/>
	</g>
	<g>
		<path fill-rule="evenodd" clip-rule="evenodd" fill="#FFFFFF" d="M82.2,33.2C66.8,19,69.4,5.9,69.6,5.9c5.8,0,5.7-5.9,5.7-5.9h6.9
			h0.1h6.9c0,0-0.1,5.9,5.7,5.9c0.2,0,2.8,13.1-12.5,27.3H82.2z M82.2,28.6c-10.1-10-9.7-20.3-9.4-20.4c5-1.7,5.1-5.2,5.1-5.2h4.3h0
			h4.3c0,0,0.1,3.5,5.1,5.2C91.9,8.3,92.3,18.6,82.2,28.6L82.2,28.6z"/>
		<path fill-rule="evenodd" clip-rule="evenodd" fill="#FFFFFF" d="M85.2,12.4c0,1.6-1.3,3-3,3c-1.7,0-3-1.3-3-3c0-1.6,1.3-3,3-3
			C83.9,9.4,85.2,10.8,85.2,12.4z M82.2,9.8c-1.4,0-2.6,1.2-2.6,2.6c0,1.4,1.2,2.6,2.6,2.6c1.4,0,2.6-1.2,2.6-2.6
			C84.8,11,83.7,9.8,82.2,9.8z"/>
		<path fill-rule="evenodd" clip-rule="evenodd" fill="#FFFFFF" d="M86.6,12.4c0,2.4-1.9,4.3-4.3,4.3c-2.4,0-4.3-1.9-4.3-4.3
			c0-2.4,1.9-4.3,4.3-4.3C84.6,8.1,86.6,10.1,86.6,12.4z M82.2,8.6c-2.1,0-3.8,1.7-3.8,3.8c0,2.1,1.7,3.8,3.8,3.8
			c2.1,0,3.8-1.7,3.8-3.8C86,10.3,84.3,8.6,82.2,8.6z"/>
		<path fill-rule="evenodd" clip-rule="evenodd" fill="#FFFFFF" d="M87.9,12.4c0,3.1-2.5,5.6-5.7,5.6c-3.1,0-5.7-2.5-5.7-5.6
			c0-3.1,2.5-5.6,5.7-5.6C85.4,6.8,87.9,9.3,87.9,12.4z M82.2,7.3c-2.9,0-5.2,2.3-5.2,5.1c0,2.8,2.3,5.1,5.2,5.1
			c2.9,0,5.2-2.3,5.2-5.1C87.4,9.6,85.1,7.3,82.2,7.3z"/>
		<path fill-rule="evenodd" clip-rule="evenodd" fill="#FFFFFF" d="M89.5,12.4c0,4-3.3,7.2-7.3,7.2c-4,0-7.3-3.2-7.3-7.2
			c0-4,3.3-7.2,7.3-7.2C86.3,5.2,89.5,8.4,89.5,12.4z M82.2,5.7c-3.7,0-6.8,3-6.8,6.7c0,3.7,3,6.7,6.8,6.7c3.7,0,6.8-3,6.8-6.7
			C89,8.7,86,5.7,82.2,5.7z"/>
		<rect x="75.2" y="12.2" fill-rule="evenodd" clip-rule="evenodd" fill="#FFFFFF" width="14.1" height="0.4"/>
		<rect x="82" y="5.5" fill-rule="evenodd" clip-rule="evenodd" fill="#FFFFFF" width="0.4" height="14"/>
		<polygon fill-rule="evenodd" clip-rule="evenodd" fill="#FFFFFF" points="87.4,7.7 77.4,17.5 77.1,17.2 87.1,7.3 		"/>
		<polygon fill-rule="evenodd" clip-rule="evenodd" fill="#FFFFFF" points="77.4,7.3 87.4,17.2 87.1,17.5 77.1,7.7 		"/>
		<path fill="#FFFFFF" d="M19.7,21.2c-0.8,6.1-4,9.1-10.5,9.1c-6.7,0-9-3.6-9.2-6.9c-0.1-1.3,0.1-3.3,0.4-4.8h7.4
			c-0.1,1-0.5,2.6-0.4,3.6C7.4,23.3,8.1,24,9.2,24c1.5,0,1.9-0.8,2.1-2.2l3-18.7h8.2L19.7,21.2z"/>
		<path fill="#FFFFFF" d="M49,19.6c-0.3,2.7-2,10.7-13.1,10.7c-7.8,0-11.8-5-12.2-12.1C23.2,9.7,28.2,2.6,37.3,2.6
			c6,0,11.4,2.6,12,10.5h-7.8c-0.1-2.5-1.3-3.9-3.9-3.9c-4.6,0-5.9,5.2-5.7,8.9c0.1,2.2,0.8,5.6,4.6,5.6c2.6,0,4-1.7,4.4-4.1H49z"/>
		<path fill="#FFFFFF" d="M55.3,3.2h8.2l-4.1,26.5h-8.2L55.3,3.2z"/>
		<path fill-rule="evenodd" clip-rule="evenodd" fill="#FFFFFF" d="M85.5,8.1c-0.1-0.2-0.2-0.4-0.2-0.5c0-0.2,0-0.3,0-0.5
			c0.3-0.1,0.6,1.1,0.8,1.3c0.4,0.4,1,0.7,1.5,0.9c0,0.3-0.6,0.2-0.7,0.1c-0.3-0.2-0.4-0.3-0.8-0.3c-0.1,0-0.4,0-0.5,0
			C85.3,9,85.4,9,85.4,8.8c-0.1-0.3,0-0.6-0.1-0.9"/>
		<path fill-rule="evenodd" clip-rule="evenodd" fill="#FFFFFF" d="M83.1,6.4c-0.1,0.1,0.1,0.2,0.3,0.2c0.1-0.3-0.2-0.3-0.4-0.2
			C83,6.4,83,6.4,83.1,6.4"/>
		<path fill-rule="evenodd" clip-rule="evenodd" fill="#FFFFFF" d="M85,8.9c-0.2,0-0.6-0.4-0.5,0.1c0,0.2,0.4,0.4,0.5,0.5
			c0.4,0.3,0.7,1,1.3,0.9c-0.3-0.3-0.6-0.5-0.8-0.9C85.3,9.3,85.1,9,85,8.9"/>
		<path fill-rule="evenodd" clip-rule="evenodd" fill="#FFFFFF" d="M83.2,13.8c-0.2,0-0.6,0.4-0.7,0.6c-0.2,0.2-0.3,0.6-0.3,0.9
			c0.2,1,1.2,0.7,1.9,0.6c0.2,0.4,0.5,0.2,0.9,0.3c0.3,0,0.6,0.4,0.9,0.4c0.6,0,0.1-1.2-0.1-1.5c-0.2-0.3-0.5-0.4-0.7-0.7
			c-0.2-0.3-0.2-0.7-0.4-1c-0.3-0.6-1.2-0.1-1.5,0.3c-0.1,0.1-0.1,0.1-0.2,0.2"/>
		<path fill-rule="evenodd" clip-rule="evenodd" fill="#FFFFFF" d="M86.6,14.7c-0.3,0.3-0.5,0.8,0,1c0.3,0.1,0.3,0,0.5-0.2
			c0.2-0.2,0.2-0.2,0.5-0.2c0.1-0.6-0.9-0.3-1.2-0.6"/>
		<path fill-rule="evenodd" clip-rule="evenodd" fill="#FFFFFF" d="M84.7,13.4c0.4-0.3,0.8-0.8,1.3-0.9c-0.2-0.5-0.6-0.7-0.9-1.1
			c-0.3-0.4-0.5-1-0.9-1.3c-0.5-0.5-0.9-0.1-1.1,0.4c-0.1,0.2-0.2,0.5-0.3,0.7c0,0.3,0.1,0.4,0.3,0.7c-0.3,0.2-0.1,0.6,0,0.8
			c-0.3,0-0.2,0.3-0.2,0.5c-0.1,0.1-0.2,0.4,0,0.5c0.1-0.4,0.2-0.2,0.3-0.1c0,0,0.1,0.1,0.1,0.1c0.1,0,0.3,0,0.4,0"/>
		<path fill-rule="evenodd" clip-rule="evenodd" fill="#FFFFFF" d="M78.9,13c0.2,0.1,0.6,0.1,0.7,0.2c0.2,0.1,0.3,0.5,0.4,0.7
			c0.3,0.3,0.7,0.4,0.6,0.9c-0.3,0.1-0.5,0-0.8,0.1c-0.1,0,0,0.1-0.1,0.2c-0.2,0.1-0.5,0.1-0.7,0.2c-0.7,0.1-0.8-0.3-1.3-0.7
			c0.2-0.4,1.1-0.8,0.8-1.3C78.7,13.2,78.9,13.2,78.9,13"/>
		<path fill-rule="evenodd" clip-rule="evenodd" fill="#FFFFFF" d="M80.7,11.9c0.1-0.6,0-1.3,0.3-1.8c0.2-0.4,1.3-0.7,1.7-0.5
			c-0.1-0.1-0.5,1-0.6,1.1c-0.3,0.6-0.2,0.3-0.7,0.2c-0.3,0-0.7,0.1-0.8,0.3C80.3,11.5,80.5,11.6,80.7,11.9z"/>
		<path fill-rule="evenodd" clip-rule="evenodd" fill="#FFFFFF" d="M81.2,11.4c-0.6,0.6,0.6,1,1,1.3c0.3-0.4,0-0.8-0.3-1.2
			c-0.3-0.5-0.4-0.1-0.7,0.1c0,0,0,0,0,0.1"/>
	</g>
	<g>
		<path fill="#FFFFFF" d="M95.7,27.3h-0.9V27H97v0.3h-0.9v2.4h-0.4V27.3z"/>
		<path fill="#FFFFFF" d="M97.3,27h0.5l0.9,2.3l0.9-2.3h0.5v2.7h-0.3v-2.2h0l-0.8,2.2h-0.3l-0.8-2.2h0v2.2h-0.3V27z"/>
	</g>
</g>
</svg>
